<svg width="26" height="26" viewBox="0 0 26 26" fill="none" xmlns="http://www.w3.org/2000/svg">
<path d="M13 15.0004C14.1046 15.0004 15 14.105 15 13.0004C15 11.8958 14.1046 11.0004 13 11.0004C11.8954 11.0004 11 11.8958 11 13.0004C11 14.105 11.8954 15.0004 13 15.0004Z" fill="#276BC5"/>
<path fill-rule="evenodd" clip-rule="evenodd" d="M5.5314 13.4727C5.41391 13.1674 5.41401 12.8289 5.53169 12.5237C6.68702 9.52669 9.59464 7.40039 12.9989 7.40039C16.4048 7.40039 19.3136 9.5288 20.4678 12.5281C20.5853 12.8334 20.5852 13.1719 20.4675 13.4771C19.3121 16.4741 16.4045 18.6004 13.0003 18.6004C9.59438 18.6004 6.68558 16.472 5.5314 13.4727ZM16.2003 13.0004C16.2003 14.7677 14.7676 16.2004 13.0003 16.2004C11.233 16.2004 9.8003 14.7677 9.8003 13.0004C9.8003 11.2331 11.233 9.80039 13.0003 9.80039C14.7676 9.80039 16.2003 11.2331 16.2003 13.0004Z" fill="#276BC5"/>
<rect x="1" y="1" width="24" height="24" rx="12" stroke="#BAD5F9" stroke-width="2"/>
</svg>
