<svg width="17" height="16" viewBox="0 0 17 16" fill="none" xmlns="http://www.w3.org/2000/svg">
<path d="M2.75 2C2.05964 2 1.5 2.55964 1.5 3.25V3.75C1.5 4.44036 2.05964 5 2.75 5H14.25C14.9404 5 15.5 4.44036 15.5 3.75V3.25C15.5 2.55964 14.9404 2 14.25 2H2.75Z" fill="white"/>
<path fill-rule="evenodd" clip-rule="evenodd" d="M2.55786 6L2.91771 12.1174C2.97989 13.1746 3.85531 14 4.91426 14H12.0855C13.1445 14 14.0199 13.1746 14.0821 12.1174L14.4419 6H2.55786ZM6.6665 8.5C6.6665 8.22386 6.89036 8 7.1665 8H9.83317C10.1093 8 10.3332 8.22386 10.3332 8.5C10.3332 8.77614 10.1093 9 9.83317 9H7.1665C6.89036 9 6.6665 8.77614 6.6665 8.5Z" fill="white"/>
</svg>
