<svg width="17" height="16" viewBox="0 0 17 16" fill="none" xmlns="http://www.w3.org/2000/svg">
<path fill-rule="evenodd" clip-rule="evenodd" d="M8.5 3.5C9.30872 3.5 10.1102 3.53047 10.9035 3.5903C11.9797 3.67149 12.8285 4.52025 12.9097 5.59654C12.939 5.98551 12.9613 6.37647 12.9764 6.7693L11.8536 5.64645C11.6583 5.45118 11.3417 5.45118 11.1464 5.64645C10.9512 5.84171 10.9512 6.15829 11.1464 6.35355L13.1464 8.35355C13.3417 8.54882 13.6583 8.54882 13.8536 8.35355L15.8536 6.35355C16.0488 6.15829 16.0488 5.84171 15.8536 5.64645C15.6583 5.45118 15.3417 5.45118 15.1464 5.64645L13.9788 6.81413C13.9632 6.38101 13.9392 5.95002 13.9069 5.52133C13.7885 3.95208 12.5479 2.7115 10.9787 2.59313C10.1604 2.53141 9.33384 2.5 8.5 2.5C7.66616 2.5 6.83956 2.53141 6.02133 2.59313C4.45208 2.7115 3.2115 3.95208 3.09313 5.52133C3.08189 5.67035 3.07166 5.81965 3.06243 5.96923C3.04544 6.24485 3.25509 6.48206 3.53071 6.49905C3.80633 6.51605 4.04354 6.30639 4.06054 6.03077C4.06948 5.88576 4.0794 5.74102 4.0903 5.59654C4.17149 4.52025 5.02025 3.67149 6.09654 3.5903C6.88977 3.53047 7.69128 3.5 8.5 3.5ZM3.85355 7.64645C3.65829 7.45118 3.34171 7.45118 3.14645 7.64645L1.14645 9.64645C0.951185 9.84171 0.951185 10.1583 1.14645 10.3536C1.34171 10.5488 1.65829 10.5488 1.85355 10.3536L3.02124 9.18587C3.03678 9.61899 3.0608 10.05 3.09313 10.4787C3.2115 12.0479 4.45208 13.2885 6.02133 13.4069C6.83956 13.4686 7.66616 13.5 8.5 13.5C9.33384 13.5 10.1604 13.4686 10.9787 13.4069C12.5479 13.2885 13.7885 12.0479 13.9069 10.4787C13.9181 10.3297 13.9283 10.1803 13.9376 10.0308C13.9546 9.75516 13.7449 9.51795 13.4693 9.50095C13.1937 9.48395 12.9565 9.69361 12.9395 9.96923C12.9305 10.1142 12.9206 10.259 12.9097 10.4035C12.8285 11.4797 11.9797 12.3285 10.9035 12.4097C10.1102 12.4695 9.30872 12.5 8.5 12.5C7.69128 12.5 6.88977 12.4695 6.09654 12.4097C5.02025 12.3285 4.17149 11.4797 4.0903 10.4035C4.06096 10.0145 4.03868 9.62353 4.02359 9.2307L5.14645 10.3536C5.34171 10.5488 5.65829 10.5488 5.85355 10.3536C6.04882 10.1583 6.04882 9.84171 5.85355 9.64645L3.85355 7.64645Z" fill="white"/>
</svg>
