<svg width="16" height="16" viewBox="0 0 16 16" fill="none" xmlns="http://www.w3.org/2000/svg">
<path fill-rule="evenodd" clip-rule="evenodd" d="M14.4001 8.0001C14.4001 11.5347 11.5347 14.4001 8.0001 14.4001C4.46548 14.4001 1.6001 11.5347 1.6001 8.0001C1.6001 4.46548 4.46548 1.6001 8.0001 1.6001C11.5347 1.6001 14.4001 4.46548 14.4001 8.0001ZM7.15157 5.55155C6.91725 5.78586 6.53736 5.78586 6.30304 5.55155C6.06873 5.31723 6.06873 4.93733 6.30304 4.70302C7.2403 3.76576 8.75989 3.76576 9.69715 4.70302C10.6344 5.64028 10.6344 7.15987 9.69715 8.09713C9.38317 8.41112 9.00238 8.6206 8.6001 8.72416V9.00007C8.6001 9.33144 8.33147 9.60007 8.0001 9.60007C7.66873 9.60007 7.4001 9.33144 7.4001 9.00007V8.60008C7.4001 8.02384 7.85605 7.6627 8.26517 7.57067C8.47868 7.52264 8.68138 7.41585 8.84863 7.2486C9.31725 6.77997 9.31725 6.02018 8.84863 5.55155C8.38 5.08292 7.6202 5.08292 7.15157 5.55155ZM8.0001 12.0001C8.44192 12.0001 8.8001 11.6419 8.8001 11.2001C8.8001 10.7583 8.44192 10.4001 8.0001 10.4001C7.55827 10.4001 7.2001 10.7583 7.2001 11.2001C7.2001 11.6419 7.55827 12.0001 8.0001 12.0001Z" fill="#0A0A0A"/>
</svg>
