<svg width="16" height="16" viewBox="0 0 16 16" fill="none" xmlns="http://www.w3.org/2000/svg">
<path fill-rule="evenodd" clip-rule="evenodd" d="M7 2.5C4.79086 2.5 3 4.29086 3 6.5C3 6.61124 3.00455 6.7215 3.01349 6.8306C1.82418 7.38936 1 8.5979 1 10C1 11.933 2.567 13.5 4.5 13.5H12C13.6569 13.5 15 12.1569 15 10.5C15 9.37684 14.383 8.39876 13.4705 7.88466C13.4899 7.7591 13.5 7.63062 13.5 7.5C13.5 6.11929 12.3807 5 11 5C10.9039 5 10.809 5.00544 10.7155 5.01605C10.1262 3.54188 8.6853 2.5 7 2.5ZM8.35355 6.14645C8.15829 5.95118 7.84171 5.95118 7.64645 6.14645L5.64645 8.14645C5.45118 8.34171 5.45118 8.65829 5.64645 8.85355C5.84171 9.04882 6.15829 9.04882 6.35355 8.85355L7.5 7.70711L7.5 11C7.5 11.2761 7.72386 11.5 8 11.5C8.27614 11.5 8.5 11.2761 8.5 11V7.70711L9.64645 8.85355C9.84171 9.04882 10.1583 9.04882 10.3536 8.85355C10.5488 8.65829 10.5488 8.34171 10.3536 8.14645L8.35355 6.14645Z" fill="#276BC5"/>
</svg>
