<svg width="16" height="16" viewBox="0 0 16 16" fill="none" xmlns="http://www.w3.org/2000/svg">
<path fill-rule="evenodd" clip-rule="evenodd" d="M2.62426 1.77583C2.38995 1.54152 2.01005 1.54152 1.77574 1.77583C1.54142 2.01015 1.54142 2.39005 1.77574 2.62436L13.3757 14.2244C13.61 14.4587 13.9899 14.4587 14.2243 14.2244C14.4586 13.99 14.4586 13.6101 14.2243 13.3758L12.8281 11.9797C14.0051 11.0876 14.9276 9.87727 15.4675 8.47684C15.5852 8.17159 15.5853 7.83311 15.4678 7.5278C14.3136 4.5285 11.4048 2.4001 7.99887 2.4001C6.62566 2.4001 5.33325 2.74609 4.20408 3.35565L2.62426 1.77583ZM6.20155 5.35312L7.07494 6.22651C7.35161 6.08188 7.66633 6.0001 8.00015 6.0001C9.10472 6.0001 10.0001 6.89553 10.0001 8.0001C10.0001 8.33392 9.91836 8.64863 9.77374 8.92531L10.6473 9.79885C10.9963 9.28625 11.2003 8.667 11.2003 8.0001C11.2003 6.23279 9.76761 4.8001 8.0003 4.8001C7.3334 4.8001 6.71415 5.00411 6.20155 5.35312Z" fill="#276BC5"/>
<path d="M8.59871 11.1442L10.6169 13.1624C9.79699 13.446 8.91664 13.6001 8.0003 13.6001C4.59438 13.6001 1.68558 11.4717 0.531404 8.4724C0.413913 8.16708 0.414015 7.8286 0.531688 7.52336C0.924827 6.50355 1.52086 5.58456 2.27033 4.81585L4.85616 7.40168C4.81948 7.59554 4.8003 7.79558 4.8003 8.0001C4.8003 9.76741 6.23299 11.2001 8.0003 11.2001C8.20482 11.2001 8.40486 11.1809 8.59871 11.1442Z" fill="#276BC5"/>
</svg>
