<svg width="32" height="32" viewBox="0 0 32 32" fill="none" xmlns="http://www.w3.org/2000/svg">
<path opacity="0.3" d="M25.3333 29.3333H6.66665C5.86665 29.3333 5.33331 28.8 5.33331 28V3.99996C5.33331 3.19996 5.86665 2.66663 6.66665 2.66663H18.6666L26.6666 10.6666V28C26.6666 28.8 26.1333 29.3333 25.3333 29.3333ZM21.3333 16.8L16.9333 12.4C16.4 11.8666 15.6 11.8666 15.0666 12.4L10.6666 16.8H14.6666V24C14.6666 24.8 15.2 25.3333 16 25.3333C16.8 25.3333 17.3333 24.8 17.3333 24V16.8H21.3333Z" fill="#276BC5"/>
<path d="M20 10.6666H26.6667L18.6667 2.66663V9.33329C18.6667 10.1333 19.2 10.6666 20 10.6666Z" fill="#276BC5"/>
</svg>
