<svg width="17" height="16" viewBox="0 0 17 16" fill="none" xmlns="http://www.w3.org/2000/svg">
<path fill-rule="evenodd" clip-rule="evenodd" d="M8.5 1.5C4.91015 1.5 2 4.41015 2 8C2 11.5899 4.91015 14.5 8.5 14.5C12.0899 14.5 15 11.5899 15 8C15 4.41015 12.0899 1.5 8.5 1.5ZM9 6C9 5.72386 8.77614 5.5 8.5 5.5C8.22386 5.5 8 5.72386 8 6V7.5H6.5C6.22386 7.5 6 7.72386 6 8C6 8.27614 6.22386 8.5 6.5 8.5H8V10C8 10.2761 8.22386 10.5 8.5 10.5C8.77614 10.5 9 10.2761 9 10V8.5H10.5C10.7761 8.5 11 8.27614 11 8C11 7.72386 10.7761 7.5 10.5 7.5H9V6Z" fill="#276BC5"/>
</svg>
