<svg width="16" height="16" viewBox="0 0 16 16" fill="none" xmlns="http://www.w3.org/2000/svg">
<path fill-rule="evenodd" clip-rule="evenodd" d="M8.0001 14.4001C11.5347 14.4001 14.4001 11.5347 14.4001 8.0001C14.4001 4.46548 11.5347 1.6001 8.0001 1.6001C4.46548 1.6001 1.6001 4.46548 1.6001 8.0001C1.6001 11.5347 4.46548 14.4001 8.0001 14.4001ZM6.62436 5.77583C6.39005 5.54152 6.01015 5.54152 5.77583 5.77583C5.54152 6.01015 5.54152 6.39005 5.77583 6.62436L7.15157 8.0001L5.77583 9.37583C5.54152 9.61015 5.54152 9.99005 5.77583 10.2244C6.01015 10.4587 6.39005 10.4587 6.62436 10.2244L8.0001 8.84862L9.37583 10.2244C9.61015 10.4587 9.99005 10.4587 10.2244 10.2244C10.4587 9.99005 10.4587 9.61015 10.2244 9.37583L8.84862 8.0001L10.2244 6.62436C10.4587 6.39005 10.4587 6.01015 10.2244 5.77583C9.99005 5.54152 9.61015 5.54152 9.37583 5.77583L8.0001 7.15157L6.62436 5.77583Z" fill="#BD0000"/>
</svg>
