<svg width="24" height="24" viewBox="0 0 24 24" fill="none" xmlns="http://www.w3.org/2000/svg">
<g clip-path="url(#clip0_98_19130)">
<g opacity="0.3">
<path d="M11.3403 9.76086L9.93031 8.34086C8.98031 7.40086 7.73031 6.88086 6.39031 6.88086C5.76031 6.88086 5.14031 7.00086 4.57031 7.22086L5.61031 8.26086H7.89031V10.4009C8.29031 10.6309 8.75031 10.7509 9.22031 10.7509C9.95031 10.7509 10.6303 10.4709 11.1403 9.95086L11.3403 9.76086Z" fill="#757575"/>
</g>
<g opacity="0.3">
<path d="M11 6.62L17 12.59V14H15.59L12.76 11.17L12.56 11.37C12.1 11.83 11.57 12.17 11 12.4V15H17V17C17 17.55 17.45 18 18 18C18.55 18 19 17.55 19 17V6H11V6.62Z" fill="#757575"/>
</g>
<path d="M9.00043 4V5.38C8.17043 5.05 7.28043 4.88 6.39043 4.88C4.60043 4.88 2.81043 5.56 1.44043 6.93L4.77043 10.26H5.88043V11.37C6.74043 12.23 7.86043 12.68 8.99043 12.73V15H6.00043V18C6.00043 19.1 6.90043 20 8.00043 20H18.0004C19.6604 20 21.0004 18.66 21.0004 17V4H9.00043ZM7.89043 10.41V8.26H5.61043L4.57043 7.22C5.14043 7 5.76043 6.88 6.39043 6.88C7.73043 6.88 8.98043 7.4 9.93043 8.34L11.3404 9.75L11.1404 9.95C10.6304 10.46 9.95043 10.75 9.22043 10.75C8.75043 10.75 8.29043 10.63 7.89043 10.41ZM19.0004 17C19.0004 17.55 18.5504 18 18.0004 18C17.4504 18 17.0004 17.55 17.0004 17V15H11.0004V12.41C11.5704 12.18 12.1004 11.84 12.5604 11.38L12.7604 11.18L15.5904 14H17.0004V12.59L11.0004 6.62V6H19.0004V17Z" fill="#757575"/>
</g>
<defs>
<clipPath id="clip0_98_19130">
<rect width="24" height="24" fill="white"/>
</clipPath>
</defs>
</svg>
