<svg width="16" height="16" viewBox="0 0 16 16" fill="none" xmlns="http://www.w3.org/2000/svg">
<path fill-rule="evenodd" clip-rule="evenodd" d="M7.72884 1.7893C7.88565 1.6591 8.1143 1.6591 8.2711 1.7893C9.82213 3.07719 11.7852 3.88603 13.9333 3.98886C14.1263 3.9981 14.2912 4.13756 14.3166 4.32919C14.3716 4.74508 14.4 5.16936 14.4 5.60028C14.4 9.73022 11.7921 13.251 8.13321 14.6058C8.04743 14.6376 7.95279 14.6376 7.867 14.6058C4.20801 13.2511 1.59998 9.73022 1.59998 5.60018C1.59998 5.1693 1.62836 4.74505 1.68337 4.3292C1.70872 4.13756 1.87359 3.9981 2.06667 3.98886C4.21477 3.88603 6.17782 3.07719 7.72884 1.7893ZM11.0852 6.55295C11.2801 6.28496 11.2209 5.90971 10.9529 5.71481C10.6849 5.5199 10.3096 5.57915 10.1147 5.84715L7.32773 9.67928L5.82424 8.17578C5.58992 7.94147 5.21003 7.94147 4.97571 8.17578C4.7414 8.4101 4.7414 8.79 4.97571 9.02431L6.97571 11.0243C7.09979 11.1484 7.27197 11.2119 7.44691 11.1982C7.62185 11.1845 7.78201 11.0949 7.88522 10.953L11.0852 6.55295Z" fill="white"/>
</svg>
