<svg width="16" height="16" viewBox="0 0 16 16" fill="none" xmlns="http://www.w3.org/2000/svg">
<path fill-rule="evenodd" clip-rule="evenodd" d="M4.39999 13.6C2.41176 13.6 0.799988 11.9883 0.799988 10C0.799988 8.41474 1.82466 7.06879 3.24782 6.58834C3.21635 6.3969 3.19999 6.20038 3.19999 6.00002C3.19999 4.0118 4.81176 2.40002 6.79999 2.40002C8.11229 2.40002 9.2606 3.1022 9.88969 4.15133C10.1751 4.05326 10.4813 4.00002 10.8 4.00002C12.3464 4.00002 13.6 5.25363 13.6 6.80002C13.6 7.06669 13.5627 7.32466 13.4931 7.56899C14.5082 8.10547 15.2 9.17196 15.2 10.4C15.2 12.1673 13.7673 13.6 12 13.6H4.39999ZM8.59999 6.20002C8.59999 5.86865 8.33136 5.60002 7.99999 5.60002C7.66862 5.60002 7.39999 5.86865 7.39999 6.20002V9.8721L5.83966 8.19175C5.61418 7.94893 5.23454 7.93487 4.99172 8.16035C4.74889 8.38583 4.73483 8.76547 4.96031 9.0083L7.56031 11.8083C7.67384 11.9306 7.83315 12 7.99999 12C8.16683 12 8.32614 11.9306 8.43966 11.8083L11.0397 9.0083C11.2651 8.76547 11.2511 8.38583 11.0083 8.16035C10.7654 7.93487 10.3858 7.94893 10.1603 8.19175L8.59999 9.8721V6.20002Z" fill="white"/>
</svg>
