<svg width="16" height="16" viewBox="0 0 16 16" fill="none" xmlns="http://www.w3.org/2000/svg">
<path fill-rule="evenodd" clip-rule="evenodd" d="M7.00002 0.800049C5.785 0.800049 4.80002 1.78502 4.80002 3.00005V3.35421C4.1638 3.41582 3.53284 3.49562 2.90769 3.59308C2.58027 3.64413 2.35623 3.95093 2.40727 4.27835C2.45832 4.60576 2.76512 4.8298 3.09253 4.77876L3.21086 4.76054L3.88406 13.1755C3.97553 14.3188 4.93006 15.2 6.07705 15.2H9.92283C11.0698 15.2 12.0244 14.3188 12.1158 13.1755L12.789 4.76049L12.9077 4.77876C13.2351 4.8298 13.5419 4.60576 13.5929 4.27835C13.644 3.95093 13.42 3.64413 13.0925 3.59308C12.4673 3.49561 11.8363 3.41581 11.2 3.35419V3.00005C11.2 1.78502 10.2151 0.800049 9.00002 0.800049H7.00002ZM8.00011 3.20005C8.67159 3.20005 9.33843 3.22023 10 3.26004V3.00005C10 2.44776 9.55231 2.00005 9.00002 2.00005H7.00002C6.44774 2.00005 6.00002 2.44776 6.00002 3.00005V3.26005C6.66168 3.22024 7.32857 3.20005 8.00011 3.20005ZM7.01349 6.17007C6.99693 5.75619 6.64799 5.43409 6.23411 5.45065C5.82023 5.4672 5.49813 5.81614 5.51469 6.23003L5.7547 12.23C5.77125 12.6439 6.12019 12.966 6.53407 12.9494C6.94796 12.9329 7.27005 12.584 7.2535 12.1701L7.01349 6.17007ZM10.4855 6.23002C10.5021 5.81614 10.18 5.4672 9.76607 5.45065C9.35219 5.43409 9.00325 5.75619 8.9867 6.17007L8.7467 12.1701C8.73014 12.584 9.05224 12.9329 9.46612 12.9494C9.88 12.966 10.2289 12.6439 10.2455 12.23L10.4855 6.23002Z" fill="#BD0000"/>
</svg>
